<?xml version="1.0" encoding="utf-8"?>
<!-- Generator: Adobe Illustrator 25.4.1, SVG Export Plug-In . SVG Version: 6.00 Build 0)  -->
<svg version="1.1" id="圖層_1" xmlns="http://www.w3.org/2000/svg" xmlns:xlink="http://www.w3.org/1999/xlink" x="0px" y="0px"
	 viewBox="0 0 49.9 42" style="enable-background:new 0 0 49.9 42;" xml:space="preserve">
<style type="text/css">
	.st0{fill:#E9E9E9;}
</style>
<path class="st0" d="M22.5,32.3c0-2.6-0.7-4.9-2.1-6.7c-1-1.2-2.3-2-4-2.4c-1.6-0.4-3.2-0.4-4.6-0.1c-0.5-2.9,0.3-5.9,2.3-9.1
	c2-3.2,4.5-5.6,7.7-7.2L17.1,0c-2.4,1.2-4.7,2.7-6.8,4.5c-2.1,1.8-4,3.9-5.7,6.3s-2.9,5-3.8,8.1c-0.8,3-1,6.1-0.6,9.3
	c0.5,4.2,1.9,7.6,4.1,10c2.2,2.5,5,3.8,8.2,3.8c2.9,0,5.3-0.9,7.2-2.6C21.6,37.6,22.5,35.3,22.5,32.3L22.5,32.3z M49.9,32.3
	c0-2.6-0.7-4.9-2.1-6.7c-1-1.3-2.3-2.1-4-2.5c-1.7-0.4-3.2-0.4-4.6-0.1c-0.5-2.8,0.3-5.9,2.3-9.1c2-3.2,4.5-5.6,7.7-7.2L44.4,0
	c-2.4,1.2-4.7,2.7-6.8,4.5c-2.1,1.8-4.1,4-5.7,6.3c-1.7,2.4-2.9,5-3.7,8.1c-0.8,3-1,6.2-0.7,9.3c0.5,4.2,1.8,7.6,4,10
	c2.2,2.5,4.9,3.8,8.2,3.8c2.9,0,5.3-0.9,7.2-2.6C48.9,37.6,49.9,35.2,49.9,32.3L49.9,32.3z"/>
</svg>
